<svg id="Layer_1" data-name="Layer 1" xmlns="http://www.w3.org/2000/svg" xmlns:xlink="http://www.w3.org/1999/xlink" viewBox="0 0 418.07542 218.64162"><defs>
	<style>
		.cls-1{
			fill:none;
		}
		.cls-2{
			clip-path:url(#clip-path);
		}
		.cls-3{
			fill:#ff0;
		}
		.cls-4{
			fill:aqua;
		}
		.cls-5{
			fill:#f0f;
		}
		.cls-6{
			fill:lime;
		}
		.cls-7{
			fill:red;
		}
		.cls-8{
			fill:blue;
		}
	</style>
	<clipPath id="clip-path">
		<path id="SVGID" class="cls-1" d="M87.01306,133.23537c-19.57715,16.51856-23.55372,26.001-23.55372,34.87207h65.46143V211.2383H5.95153V199.003c0-33.64844,11.624-57.20215,47.71924-91.76807C76.61266,85.51613,83.34265,72.97463,83.34265,61.96242c0-11.624-5.2002-16.2124-14.377-16.2124-9.78857,0-14.07129,6.11817-14.07129,16.2124V77.25735H9.92809V55.5386c0-25.69483,18.96534-53.2251,57.814-53.2251,46.18994,0,62.09619,28.14209,62.09619,59.34326C129.83825,83.68117,122.49694,103.25832,87.01306,133.23537Zm165.79248,36.707v41.2959H206.00427V169.9424H137.48473V135.9883L208.75768,7.51369h44.04786V132.01174h17.43652V169.9424Zm-46.80127-87.791-26.00049,49.86035h26.00049ZM349.46179,216.4385c-38.542,0-64.23731-21.71875-64.23731-54.75489V145.16506c0-16.21191,6.72949-30.895,20.18848-36.707-13.459-5.81152-20.18848-20.49463-20.18848-36.707V57.06838c0-33.03662,25.69531-54.75488,64.23731-54.75488,38.84863,0,64.2373,21.71826,64.2373,54.75488V71.751c0,16.2124-6.72949,30.89551-20.18848,36.707,13.459,5.812,20.18848,20.49512,20.18848,36.707v16.51855C413.69909,194.71975,388.31042,216.4385,349.46179,216.4385ZM364.451,59.51565c0-8.56543-6.11816-13.76563-14.98925-13.76563-8.56446,0-14.98829,5.2002-14.98829,13.76563V83.98684c0,8.56494,6.42383,14.07129,14.98829,14.07129,8.87109,0,14.98925-5.50635,14.98925-14.07129Zm0,73.41406c0-8.56543-6.11816-13.76514-14.98925-13.76514-8.56446,0-14.98829,5.19971-14.98829,13.76514v26.30664c0,8.56445,6.42383,13.76465,14.98829,13.76465,8.87109,0,14.98925-5.2002,14.98925-13.76465Z"/>
	</clipPath>
</defs>
<title>248header</title>
<g class="cls-2">
	<path id="yellow-255" class="cls-3" d="M79.67642,160.61606c-19.57715,16.51856-23.55371,26.001-23.55371,34.87208h65.46143V238.619H-1.3851V226.38364c0-33.64843,11.624-57.20215,47.71924-91.76806C69.276,112.89683,76.006,100.35532,76.006,89.34312c0-11.624-5.20019-16.21241-14.37695-16.21241-9.78858,0-14.07129,6.11817-14.07129,16.21241V104.638H2.59146V82.91929c0-25.69483,18.96533-53.2251,57.814-53.2251,46.19,0,62.0962,28.14209,62.0962,59.34326C122.50162,111.06187,115.16031,130.639,79.67642,160.61606Zm165.79248,36.707V238.619H198.66763V197.3231H130.1481V163.369l71.273-128.4746H245.4689v124.498h17.43652V197.3231Zm-46.80127-87.791-26.00049,49.86035h26.00049ZM342.12515,243.81919c-38.542,0-64.2373-21.71875-64.2373-54.75488V172.54575c0-16.21191,6.72949-30.895,20.18847-36.707-13.459-5.81152-20.18847-20.49463-20.18847-36.707V84.44907c0-33.03662,25.69531-54.75488,64.2373-54.75488,38.84863,0,64.23731,21.71826,64.23731,54.75488V99.13169c0,16.2124-6.7295,30.89551-20.18848,36.707,13.459,5.812,20.18848,20.49512,20.18848,36.707v16.51856C406.36246,222.10044,380.97378,243.81919,342.12515,243.81919ZM357.11441,86.89634c0-8.56543-6.11816-13.76563-14.98926-13.76563-8.56445,0-14.98828,5.2002-14.98828,13.76563v24.47119c0,8.56494,6.42383,14.07129,14.98828,14.07129,8.8711,0,14.98926-5.50635,14.98926-14.07129Zm0,73.41406c0-8.56543-6.11816-13.76514-14.98926-13.76514-8.56445,0-14.98828,5.19971-14.98828,13.76514V186.617c0,8.56445,6.42383,13.76465,14.98828,13.76465,8.8711,0,14.98926-5.2002,14.98926-13.76465Z"/>
	<path id="cyan-135" class="cls-4" d="M66.969,113.19132c-19.57715,16.51855-23.55371,26.001-23.55371,34.87207h65.46143v43.13086H-14.09252V178.9589c0-33.64844,11.624-57.20215,47.71924-91.76807C56.56861,65.47208,63.29859,52.93058,63.29859,41.91837c0-11.624-5.20019-16.2124-14.37695-16.2124-9.78857,0-14.07129,6.11816-14.07129,16.2124V57.21329H-10.116V35.49454c0-25.69482,18.96533-53.22509,57.814-53.22509,46.18994,0,62.09619,28.14209,62.09619,59.34326C109.7942,63.63712,102.45289,83.21427,66.969,113.19132Zm165.79248,36.707v41.2959H185.96021v-41.2959H117.44068v-33.9541l71.273-128.47461h44.04785V111.96769H250.198v37.93066Zm-46.80127-87.791-26.00048,49.86035h26.00048ZM329.41773,196.39445c-38.542,0-64.2373-21.71875-64.2373-54.75489V125.121c0-16.21192,6.72949-30.895,20.18847-36.707-13.459-5.81153-20.18847-20.49463-20.18847-36.707V37.02433c0-33.03662,25.69531-54.75488,64.2373-54.75488,38.84864,0,64.23731,21.71826,64.23731,54.75488V51.707c0,16.2124-6.72949,30.8955-20.18848,36.707,13.459,5.812,20.18848,20.49511,20.18848,36.707v16.51855C393.655,174.6757,368.26637,196.39445,329.41773,196.39445ZM344.407,39.47159c0-8.56543-6.11816-13.76562-14.98926-13.76562-8.56445,0-14.98828,5.20019-14.98828,13.76562v24.4712c0,8.56494,6.42383,14.07128,14.98828,14.07128,8.8711,0,14.98926-5.50634,14.98926-14.07128Zm0,73.41407c0-8.56543-6.11816-13.76514-14.98926-13.76514-8.56445,0-14.98828,5.19971-14.98828,13.76514V139.1923c0,8.56445,6.42383,13.76465,14.98828,13.76465,8.8711,0,14.98926-5.2002,14.98926-13.76465Z"/>
	<path id="magenta-15" class="cls-5" d="M114.39363,125.89877c-19.57715,16.51855-23.55371,26.001-23.55371,34.87207h65.46142V203.9017H33.33211V191.66635c0-33.64844,11.624-57.20215,47.71923-91.76807,22.9419-21.71875,29.67188-34.26025,29.67188-45.27246,0-11.624-5.2002-16.2124-14.37695-16.2124-9.78858,0-14.07129,6.11816-14.07129,16.2124V69.92074H37.30867V48.202c0-25.69482,18.96533-53.2251,57.814-53.2251,46.18995,0,62.0962,28.14209,62.0962,59.34327C157.21883,76.34457,149.87752,95.92172,114.39363,125.89877Zm165.79248,36.707v41.2959H233.38484V162.6058H164.86531V128.6517L236.13826.17709h44.04785V124.67514h17.43652V162.6058Zm-46.80127-87.791-26.00049,49.86035h26.00049Zm143.45752,134.2871c-38.542,0-64.2373-21.71875-64.2373-54.75488V137.82846c0-16.21192,6.72949-30.895,20.18847-36.707-13.459-5.81153-20.18847-20.49463-20.18847-36.707V49.73178c0-33.03662,25.69531-54.75489,64.2373-54.75489,38.84863,0,64.2373,21.71827,64.2373,54.75489V64.41439c0,16.21241-6.72949,30.89551-20.18847,36.707,13.459,5.812,20.18847,20.49511,20.18847,36.707V154.347C441.07966,187.38314,415.691,209.10189,376.84236,209.10189ZM391.83162,52.179c0-8.56543-6.11817-13.76562-14.98926-13.76562-8.56445,0-14.98828,5.20019-14.98828,13.76562V76.65023c0,8.565,6.42383,14.07129,14.98828,14.07129,8.87109,0,14.98926-5.50634,14.98926-14.07129Zm0,73.41407c0-8.56543-6.11817-13.76514-14.98926-13.76514-8.56445,0-14.98828,5.19971-14.98828,13.76514v26.30664c0,8.56445,6.42383,13.76464,14.98828,13.76464,8.87109,0,14.98926-5.20019,14.98926-13.76464Z"/>
	<path id="green" class="cls-6" d="M277.88787,176.54616v-4.00042c0-16.21192,6.72949-30.895,20.18848-36.707-13.459-5.81153-20.18848-20.49463-20.18848-36.707V93.12124a29.2024,29.2024,0,0,1,7.481-4.70728,29.20119,29.20119,0,0,1-7.46326-4.69128c.28119-24.31739,14.56531-42.39893,37.66852-50.02979a14.34533,14.34533,0,0,0-1.14471,5.77869V63.94277c0,8.56494,6.42383,14.07129,14.98828,14.07129.2901,0,.56891-.02173.853-.03345a13.3011,13.3011,0,0,0-3.13385,8.91571V99.26369c-7.39533.84864-12.70746,5.83826-12.70746,13.62195v26.30664c0,8.46759,6.28326,13.63776,14.70251,13.75373a13.7408,13.7408,0,0,0-1.995,7.36437V186.617a13.10442,13.10442,0,0,0,3.93182,9.74841c-.55084.00891-1.09461.029-1.651.029C307.09435,196.39443,289.09539,189.09707,277.88787,176.54616Zm64.23731-146.852c-.51953,0-1.02741.01941-1.54224.02729a13.18575,13.18575,0,0,1,3.824,9.75012V63.94277a13.85529,13.85529,0,0,1-3.18653,9.2226c.30091-.01325.59815-.03467.90473-.03467,8.87109,0,14.98925,5.20019,14.98925,13.76562v24.47119c0,7.80616-5.09088,13.05658-12.70745,13.92829v13.89648a14.01979,14.01979,0,0,1-1.92859,7.36609c8.67682.13861,14.636,5.30255,14.636,13.752V186.617a14.73373,14.73373,0,0,1-1.11932,5.81475c23.43842-7.687,37.65991-26.069,37.65991-50.79223V140.546a29.2021,29.2021,0,0,0-7.481-4.70727,29.20165,29.20165,0,0,0,7.481-4.707V125.121c0-16.21191-6.72949-30.895-20.18847-36.707,13.459-5.81152,20.18847-20.49463,20.18847-36.707V49.43648C382.49566,36.95052,364.56286,29.69417,342.12518,29.69417ZM34.85034,57.21328V41.91836a23.7494,23.7494,0,0,1,1.19177-7.92542A51.49928,51.49928,0,0,0,9.2199,57.21328ZM47.55779,89.3431c0-10.09424,4.28272-16.2124,14.07129-16.2124,9.17676,0,14.377,4.58838,14.377,16.2124,0,7.25555-2.92438,15.17645-11.47944,25.94727.78907-.68842,1.59589-1.38483,2.44239-2.09906C98.69262,86.391,107.91558,67.90243,109.51544,48.54665c-9.69635-11.43133-25.408-18.85248-49.11-18.85248-.21777,0-.42633.01258-.64282.01429,2.3042,2.607,3.536,6.57562,3.536,12.2099,0,11.0122-6.73,23.55371-29.67188,45.27246-6.39477,6.12384-12.00708,11.89727-16.93713,17.4472H47.55779Zm197.91114,22.62457H232.76147V34.89437H201.42108L185.9602,62.76369v49.204H159.95971l20.29761-38.92413-42.63617,76.8548H177.618l21.04962-40.36628v49.86036H185.9602v31.80182h46.80127v-41.2959h12.70746ZM56.47051,191.19424c1.30762-7.76307,6.73438-16.68,23.20594-30.57819,5.20373-4.39618,9.78656-8.56329,13.84539-12.55267H43.41528c0-4.65918,1.1015-9.48883,4.97943-15.41614q-1.00827.97174-2.06055,1.96832c-22.36,21.41266-35.32226,38.60022-41.95477,56.57868Z"/>
	<path id="red" class="cls-7" d="M121.58416,203.90169H33.33209V191.66634c0-33.64844,11.624-57.20215,47.71923-91.76806C103.99322,78.17953,110.7232,65.638,110.7232,54.62581a29.19756,29.19756,0,0,0-.42951-5.15313c8.64069,10.73535,12.20795,24.80517,12.20795,39.56476,0,13.95465-2.95917,26.93017-14.14441,42.18768-6.41772,5.94543-10.59869,10.90326-13.25622,15.26807-4.43457,4.46191-9.53406,9.14648-15.42456,14.12286C60.0993,177.1346,56.12274,186.617,56.12274,195.48812h65.46142Zm34.71716-43.13086H131.58947l-1.44134,2.59815v33.9541h26.15319ZM297.62261,136.0599c-13.14856,5.947-19.73474,20.462-19.73474,36.48584v16.51855a57.06088,57.06088,0,0,0,1.89752,14.8374h.4007V162.6058h17.43652ZM277.88787,84.44906V99.13167a51.83694,51.83694,0,0,0,2.29822,15.53614V68.24441A56.49164,56.49164,0,0,0,277.88787,84.44906ZM82.275,54.62581c0-10.09423,4.28271-16.2124,14.07129-16.2124.40734,0,.79718.02033,1.18872.03864-9.26337-5.50678-21.44654-8.75788-37.12952-8.75788a68.78559,68.78559,0,0,0-20.77893,3.03931A53.41485,53.41485,0,0,0,37.30865,48.202V69.92074H82.275ZM342.12518,200.38167a19.62977,19.62977,0,0,1-3.16462-.25268c10.26783,5.781,23.12879,8.9729,37.88178,8.9729a84.63736,84.63736,0,0,0,27.36261-4.23755,57.13809,57.13809,0,0,0,2.15753-15.8V172.54574c0-13.74482-4.85657-26.36847-14.53088-33.44092v12.79492c0,8.56445-6.11817,13.76465-14.98926,13.76465-8.56445,0-14.98828-5.2002-14.98828-13.76465V125.5931c0-8.56543,6.42383-13.76514,14.98828-13.76514,8.87109,0,14.98926,5.19971,14.98926,13.76514v6.97968c9.67431-7.07221,14.53088-19.69587,14.53088-33.44111V84.44906c0-15.54517-5.62445-28.58173-15.62433-38.03138A14.77106,14.77106,0,0,1,391.8316,52.179V76.65023c0,8.56494-6.11817,14.07129-14.98926,14.07129-8.56445,0-14.98828-5.50635-14.98828-14.07129V52.179c0-8.56543,6.42383-13.76563,14.98828-13.76563a20.53157,20.53157,0,0,1,3.31982.26581c-10.26056-5.78863-23.15625-8.98505-38.037-8.98505a84.03057,84.03057,0,0,0-27.353,4.27991A56.65819,56.65819,0,0,0,312.605,49.73177V64.41439c0,13.74567,4.85687,26.36975,14.53186,33.44183V86.89632c0-8.56543,6.42382-13.76562,14.98828-13.76562,8.87109,0,14.98925,5.20019,14.98925,13.76562v24.47119c0,8.565-6.11816,14.07129-14.98925,14.07129-8.56446,0-14.98828-5.50634-14.98828-14.07129V104.3868c-9.675,7.07233-14.53186,19.69635-14.53186,33.44165V154.347c0,15.49682,5.65466,28.50274,15.63653,37.94537a14.37181,14.37181,0,0,1-1.10467-5.67535V160.31038c0-8.56542,6.42382-13.76513,14.98828-13.76513,8.87109,0,14.98925,5.19971,14.98925,13.76513V186.617C357.11443,195.18148,350.99627,200.38167,342.12518,200.38167Zm-44.50257-64.76416V124.67513H284.91424A30.17934,30.17934,0,0,0,297.62261,135.61751Zm-64.23779,68.28418V162.6058H164.86529V128.65169l52.01306-93.75732h28.59058v124.498h17.43652v37.93066H245.46893v6.57861Zm-34.71716-94.36963-26.00049,49.86036h26.00049Zm34.71716,15.14307V74.81478l-26.00049,49.86035Z"/>
	<path id="blue" class="cls-8" d="M81.05132,99.89828c2.76142-2.61414,5.28235-5.09235,7.59052-7.45392a194.17492,194.17492,0,0,1-16.36658,16.14721C75.02886,105.76479,77.943,102.8749,81.05132,99.89828Zm9.78858,60.87255a25.50161,25.50161,0,0,1,3.35449-12.70745H43.41528q0-.76557.04351-1.53882c-7.19818,14.14453-10.06756,28.20575-10.12152,44.66968H108.8767V160.77083Zm26.60077-37.48291C150.29742,94.7723,157.2188,75.69826,157.2188,54.32015a84.88854,84.88854,0,0,0-.49353-9.18927l-39.2846,70.81336Zm-68.519-97.582c9.17676,0,14.377,4.58838,14.377,16.21241,0,7.70868-3.30719,16.17157-13.15528,28.00238H82.275V54.62581c0-10.09423,4.28271-16.2124,14.07129-16.2124,6.74249,0,11.32769,2.49072,13.2915,8.41535q.15518-2.59178.15643-5.21607c0-18.20526-5.431-35.35772-19.11755-46.49743C65.04131-3.43888,48.78112,10.45974,41.59918,27.29873A15.57286,15.57286,0,0,1,48.92162,25.706ZM185.9602,162.6058h46.80127V149.89834H250.198V111.96767H233.38482v12.70746H207.38433l25.37714-48.665V6.26394L185.9602,90.62661v21.34106H174.121l-9.25568,16.684v21.24665H185.9602Zm94.22589,0h17.43652V124.67513H280.18609V91.32876c-9.995,7.00128-15.00568,19.82147-15.00568,33.79223v16.51856c0,15.161,5.4242,27.92834,15.00568,37.31689Zm52.89941,33.7218C320.1145,186.72628,312.605,172.193,312.605,154.347V137.82845a52.66459,52.66459,0,0,1,1.8244-13.95264v15.31647c0,8.56446,6.42383,13.76465,14.98828,13.76465,8.87109,0,14.98926-5.20019,14.98926-13.76465V112.88564c0-8.56543-6.11817-13.76514-14.98926-13.76514-.12787,0-.25043.01215-.37732.01447-10.944-6.7486-16.43536-20.10114-16.43536-34.72058V49.73177c0-32.0116,24.12585-53.39587,60.68756-54.692C386.2329,4.64089,393.655,19.17562,393.655,37.02431V51.70693A52.6668,52.6668,0,0,1,391.8316,65.656V52.179c0-8.56543-6.11817-13.76563-14.98926-13.76563-8.56445,0-14.98828,5.2002-14.98828,13.76563V76.65023c0,8.56494,6.42383,14.07129,14.98828,14.07129.28937,0,.56744-.02167.85083-.03333,10.6322,6.8385,15.96185,20.02362,15.96185,34.4328v16.51856C393.655,173.62411,369.85619,194.99917,333.0855,196.3276Zm28.76856-44.42786c0,8.56445,6.42383,13.76465,14.98828,13.76465,8.87109,0,14.98926-5.2002,14.98926-13.76465V125.5931c0-8.56543-6.11817-13.76514-14.98926-13.76514-8.56445,0-14.98828,5.19971-14.98828,13.76514ZM344.407,63.94277V39.47158c0-8.56543-6.11817-13.76563-14.98926-13.76563-8.56445,0-14.98828,5.2002-14.98828,13.76563V63.94277c0,8.56494,6.42383,14.07129,14.98828,14.07129C338.28881,78.01406,344.407,72.50771,344.407,63.94277ZM265.18041,37.02431V51.70693c0,13.97119,5.01068,26.7915,15.00568,33.79242V.17708h-.47C270.429,9.52028,265.18041,22.11373,265.18041,37.02431Z"/>
	<path id="black" d="M284.91424,124.67513h12.70837v10.94238A30.17934,30.17934,0,0,1,284.91424,124.67513ZM312.605,64.41439c0,13.74567,4.85687,26.36975,14.53186,33.44183V86.89632a13.3011,13.3011,0,0,1,3.13385-8.91571c-.28412.01172-.56293.03345-.853.03345-8.56445,0-14.98828-5.50635-14.98828-14.07129V39.47158a14.34533,14.34533,0,0,1,1.14471-5.77869c-.27093.08948-.53338.18885-.80194.28119A56.65819,56.65819,0,0,0,312.605,49.73177Zm-32.41895,21.085V68.24441a56.26765,56.26765,0,0,0-2.28046,15.47827C278.63555,84.349,279.3933,84.94405,280.18609,85.49935ZM185.9602,111.96767H174.121l-9.25568,16.684v21.24665H177.618l21.04962-40.36628v49.86036H185.9602v3.21338h46.80127V149.89834h12.70746V111.96767H233.38482v12.70746H207.38433l25.37714-48.665V34.89437H216.87835L185.9602,90.62661Zm142.28137,80.32471a14.37181,14.37181,0,0,1-1.10467-5.67535V160.31038a13.7408,13.7408,0,0,1,1.995-7.36437c-8.41925-.116-14.70251-5.28614-14.70251-13.75373V123.87581a52.66459,52.66459,0,0,0-1.8244,13.95264V154.347C312.605,169.84383,318.2597,182.84975,328.24157,192.29238ZM280.18609,91.32876c-.79932.55993-1.56281,1.16034-2.29822,1.79248v6.01043a51.83694,51.83694,0,0,0,2.29822,15.53614ZM82.275,69.92074V54.62581c0-10.09423,4.28271-16.2124,14.07129-16.2124.40734,0,.79718.02033,1.18872.03864-9.26337-5.50678-21.44654-8.75788-37.12952-8.75788-.21777,0-.42633.01258-.64282.01429,2.3042,2.607,3.536,6.57562,3.536,12.2099,0,7.70868-3.30719,16.17157-13.15528,28.00238Zm273.72015,122.511c23.43842-7.687,37.65991-26.069,37.65991-50.79223V140.546c-.58667-.50427-1.1961-.98254-1.82342-1.44116v12.79492c0,8.56445-6.11817,13.76465-14.98926,13.76465-8.56445,0-14.98828-5.2002-14.98828-13.76465V125.5931c0-8.56543,6.42383-13.76514,14.98828-13.76514,8.87109,0,14.98926,5.19971,14.98926,13.76514v6.97968c.62732-.45862,1.23675-.93683,1.82342-1.44111V125.121c0-14.40918-5.32965-27.5943-15.96185-34.4328-.28339.01166-.56146.03333-.85083.03333-8.56445,0-14.98828-5.50635-14.98828-14.07129V52.179c0-8.56543,6.42383-13.76563,14.98828-13.76563a20.53157,20.53157,0,0,1,3.31982.26581c-10.26056-5.78863-23.15625-8.98505-38.037-8.98505-.51953,0-1.02741.01941-1.54224.02729a13.18575,13.18575,0,0,1,3.824,9.75012V63.94277a13.85529,13.85529,0,0,1-3.18653,9.2226c.30091-.01325.59815-.03467.90473-.03467,8.87109,0,14.98925,5.20019,14.98925,13.76562v24.47119c0,7.80616-5.09088,13.05658-12.70745,13.92829v13.89648a14.01979,14.01979,0,0,1-1.92859,7.36609c8.67682.13861,14.636,5.30255,14.636,13.752V186.617A14.73373,14.73373,0,0,1,355.99511,192.43178ZM33.33727,191.19424H56.47051c1.30762-7.76307,6.73438-16.68,23.20594-30.57819,5.20373-4.39618,9.78656-8.56329,13.84539-12.55267H43.41528q0-.76557.04351-1.53882C36.26061,160.66909,33.39123,174.73031,33.33727,191.19424ZM297.62261,162.6058V136.0599c-13.14856,5.947-19.73474,20.462-19.73474,36.48584v4.00042q1.10632,1.239,2.29822,2.41028V162.6058ZM88.64184,92.44436c-2.30817,2.36157-4.8291,4.83978-7.59052,7.45392-3.10833,2.97662-6.02246,5.86651-8.77606,8.69329A194.17492,194.17492,0,0,0,88.64184,92.44436ZM393.655,51.70693V49.43648c-.92956-1.04-1.89447-2.05261-2.91687-3.0188A14.77106,14.77106,0,0,1,391.8316,52.179V65.656A52.6668,52.6668,0,0,0,393.655,51.70693Z"/>
</g>
</svg>
