<?xml version="1.0" encoding="utf-8"?>
<svg version="1.1" id="Layer_1" xmlns="http://www.w3.org/2000/svg" xmlns:xlink="http://www.w3.org/1999/xlink" x="0px" y="0px"
	 viewBox="0 0 850.4 850.4" style="enable-background:new 0 0 850.4 850.4;" xml:space="preserve">
<style type="text/css">
	.st0{fill:#754C29;}
</style>
<g>
	<path class="st0" d="M426.7,726.7c-166,0-301-135-301-301s135-301,301-301s301,135,301,301S592.7,726.7,426.7,726.7z M426.7,152.3
		C276,152.3,153.3,275,153.3,425.7c0,150.8,122.7,273.4,273.4,273.4s273.4-122.7,273.4-273.4C700.2,275,577.5,152.3,426.7,152.3z"/>
</g>
<g>
	<path class="st0" d="M367.1,239.1h27.6v289.5c0,38.2-30.8,69-69,69s-69-30.8-69-69V502h27.6v26.7c0,22.8,18.6,41.4,41.4,41.4
		c22.8,0,41.4-18.6,41.4-41.4V239.1z"/>
	<path class="st0" d="M582.2,597.7h-27.6v-119c0-26-20.7-46.7-46.7-46.7h-33.5v165.7h-27.6V239.1h61.1c40.9,0,74.4,33.5,74.4,74.4
		v44.1c0,25-12.7,47.3-31.3,60.6c18.6,13.8,31.3,35.6,31.3,60.5V597.7z M507.8,404.3c26,0,46.7-20.7,46.7-46.7v-44.1
		c0-26-20.7-46.7-46.7-46.7h-33.5v137.6H507.8z"/>
</g>
</svg>
