<svg id="Layer_1" data-name="Layer 1" xmlns="http://www.w3.org/2000/svg" viewBox="0 0 1280 1024"><defs><style>.cls-1{fill:#0fc;}.cls-2{fill:#fff;}</style></defs><title>Artboard 1</title><rect class="cls-1" width="1280" height="1024"/><path class="cls-2" d="M640.00028,245.32311a265.37881,265.37881,0,0,0-188.8864,78.23868c-104.152,104.15188-104.152,273.6208,0,377.7728a267.12738,267.12738,0,0,0,377.77291,0c104.15095-104.152,104.15095-273.62092,0-377.7728A265.37726,265.37726,0,0,0,640.00028,245.32311ZM813.994,653.86859,701.04066,540.9153l-31.21638,31.21637L782.80856,685.116a224.46376,224.46376,0,0,1-301.14827-14.32778c-87.38953-87.3886-87.46186-229.50846-.07232-316.89694a222.54606,222.54606,0,0,1,158.44847-65.61079c59.86784,0,116.42415,23.043,158.756,65.37573C880.88035,435.74411,886.15865,565.8797,813.994,653.86859Z"/></svg>